<?xml version="1.0" encoding="UTF-8" standalone="no"?>
<svg
   xmlns:svg="http://www.w3.org/2000/svg"
   xmlns="http://www.w3.org/2000/svg"
   width="100%"
   height="100%"
   viewBox="-64 -64 128 64"
   version="1.1">
  <g
     style="fill:#797979;stroke:none;fill-opacity:1"
     transform="matrix(0.75,0,0,0.75,0,-16)">
    <path
       style="fill:#797979;stroke:none;fill-opacity:1"
       d="M 16 0 A 48 48 0 0 0 112 0 L 81.03125 0 C 81.28218 0.65061641 81.40625 1.3498812 81.40625 2.09375 C 81.40625 5.309142 78.840393 7.90625 75.625 7.90625 L 69.8125 7.90625 L 69.8125 13.71875 C 69.8125 16.934141 67.215392 19.53125 64 19.53125 C 60.784608 19.53125 58.21875 16.934141 58.21875 13.71875 L 58.21875 7.90625 L 52.40625 7.90625 C 49.190858 7.90625 46.59375 5.309142 46.59375 2.09375 C 46.59375 1.3498812 46.715555 0.65061641 46.96875 0 L 16 0 z "
       transform="matrix(1.3333333,0,0,1.3333333,-85.333333,-64)"/>
  </g>
  <g>
    <path
       style="fill:#797979;fill-opacity:1;stroke:none;"
       d="m 51.5,-61.59375 0,0.21875 -0.1875,2.3125 -0.3125,2.5 0,0.09375 -0.03125,0.125 -0.34375,1.96875 7.875,1.40625 0.375,-2.1875 0.03125,-0.09375 0,-0.09375 0.34375,-2.71875 0.03125,-0.09375 0,-0.09375 0.21875,-2.71875 0,-0.09375 0,-0.125 0,-0.3125 -8,-0.21875 z m -110.875,1.9375 0.09375,1.40625 0,0.09375 0.03125,0.09375 0.34375,2.71875 0,0.09375 0.03125,0.09375 0.46875,2.6875 0,0.09375 0.03125,0.09375 0.25,1.125 7.8125,-1.78125 -0.21875,-0.9375 -0.03125,-0.1875 -0.40625,-2.28125 L -51,-56.5 l 0,-0.0625 -0.3125,-2.5 -0.09375,-1.1875 z M 48.53125,-46.75 l -0.0625,0.1875 -0.84375,2.1875 -0.0625,0.1875 -0.9375,2.125 -0.03125,0 -0.8125,1.6875 7.15625,3.5625 0.8125,-1.65625 0.0625,-0.09375 0.03125,-0.09375 1.09375,-2.46875 0.03125,-0.09375 0.0625,-0.09375 0.96875,-2.53125 0.03125,-0.09375 0.03125,-0.09375 0.21875,-0.65625 -7.59375,-2.53125 z m -104.1875,3.8125 0.625,1.625 0.0625,0.09375 0.03125,0.09375 1.09375,2.46875 0.03125,0.09375 0.0625,0.09375 1.21875,2.4375 0.03125,0.09375 0.0625,0.0625 0.375,0.71875 6.96875,-3.9375 -0.28125,-0.53125 -0.09375,-0.15625 -1.125,-2.28125 -0.03125,0 -0.9375,-2.125 -0.0625,-0.1875 -0.5625,-1.46875 z m 97.09375,9.59375 -1.53125,2 -0.125,0.125 -1.5,1.78125 -0.15625,0.15625 -0.90625,0.9375 5.8125,5.5 1.03125,-1.09375 0.0625,-0.0625 0.09375,-0.09375 1.75,-2.0625 0.0625,-0.0625 0.0625,-0.09375 1.6875,-2.15625 0.0625,-0.0625 0.0625,-0.09375 0.59375,-0.84375 -6.5625,-4.59375 z m -88.84375,5.375 1.3125,1.65625 0.0625,0.09375 0.0625,0.0625 1.75,2.0625 0.09375,0.09375 0.0625,0.0625 1.875,1.96875 0.0625,0.09375 0.09375,0.0625 0.3125,0.3125 5.5,-5.8125 -0.1875,-0.15625 -0.09375,-0.09375 -0.03125,-0.03125 -1.59375,-1.6875 -0.15625,-0.15625 -1.5,-1.78125 -1.28125,-1.65625 z m 78.21875,5.3125 -0.15625,0.09375 -1.9375,1.34375 -2.125,1.34375 -0.1875,0.125 -0.8125,0.46875 3.90625,6.96875 1,-0.5625 0.09375,-0.0625 L 30.6875,-13 33,-14.4375 33.0625,-14.5 l 0.09375,-0.0625 2.21875,-1.53125 0.09375,-0.0625 0.0625,-0.0625 1.125,-0.84375 -4.90625,-6.34375 z m -65.96875,6.6875 2,1.40625 0.09375,0.0625 0.0625,0.0625 2.3125,1.4375 0.09375,0.0625 0.09375,0.0625 2.375,1.3125 0.0625,0.0625 0.09375,0.03125 0.09375,0.03125 2.6875,-5.34375 0.96875,-1.75 -0.09375,-0.03125 -0.0625,-0.0625 -2.03125,-1.125 -0.1875,-0.125 -2.125,-1.34375 -1.875,-1.28125 z m 52.59375,0.4375 -0.1875,0.0625 -2.21875,0.75 -0.1875,0.0625 -2.4375,0.65625 -0.59375,0.15625 1.78125,7.78125 0.78125,-0.1875 0.09375,0 0.09375,-0.03125 2.625,-0.75 0.09375,0 L 17.375,-7.0625 19.96875,-7.9375 20.0625,-7.96875 20.15625,-8 l 1.625,-0.625 -2.90625,-7.46875 z m -35.46875,1.84375 -2.1875,5.65625 0.0625,0.03125 0.09375,0.03125 0.09375,0.03125 2.59375,0.875 0.09375,0.03125 0.09375,0 2.625,0.75 0.09375,0.03125 0.09375,0 2.40625,0.5625 1.78125,-7.8125 -2.21875,-0.5 -2.4375,-0.65625 -0.1875,-0.0625 -2.21875,-0.75 -0.09375,-0.03125 -0.09375,-0.03125 z M 2.625,-12.5 l -0.21875,0 -2.3125,0.0625 -0.09375,0 -0.09375,0 -2.3125,-0.0625 -0.21875,0 -0.25,-0.03125 -0.59375,7.96875 0.4375,0.0625 0.09375,0 0.125,0 2.71875,0.0625 0.09375,0 0.09375,0 2.71875,-0.0625 0.125,0 0.09375,0 2.09375,-0.1875 -0.59375,-7.96875 z" />
  </g>
</svg>
