<?xml version="1.0" encoding="UTF-8" standalone="no"?>
<svg
   xmlns:svg="http://www.w3.org/2000/svg"
   xmlns="http://www.w3.org/2000/svg"
   width="100%"
   height="100%"
   viewBox="-64 -64 64 128"
   version="1.1">
  <g
     transform="rotate(-90)">
    <g
       style="fill:#797979;stroke:none;fill-opacity:1"
       transform="matrix(0.75,0,0,0.75,0,-16)">
      <path
         style="fill:#797979;fill-opacity:1;stroke:none"
         d="M -64 16 C -63.975769 25.502929 -63.969628 35.043605 -63.96875 44.5625 C -63.105102 43.97999 -62.06205 43.65625 -60.9375 43.65625 C -57.9387 43.65625 -55.53125 46.0637 -55.53125 49.0625 L -55.53125 49.21875 C -55.53125 52.21755 -57.9387 54.625 -60.9375 54.625 C -62.06205 54.625 -63.105102 54.30126 -63.96875 53.71875 C -63.969118 54.741544 -63.968263 55.793457 -63.96875 56.8125 C -63.130922 56.308811 -62.14648 56.03125 -61.09375 56.03125 C -58.00927 56.03125 -55.53125 58.50927 -55.53125 61.59375 L -55.53125 76.125 C -55.53125 79.20948 -58.00927 81.6875 -61.09375 81.6875 C -62.14648 81.6875 -63.130922 81.409939 -63.96875 80.90625 C -63.979074 91.862071 -64.006763 103.2122 -64 112 C -51.433629 112 -38.948261 106.82327 -30.0625 97.9375 C -21.176739 89.051734 -16 76.56637 -16 64 C -16 51.43363 -21.176739 38.948266 -30.0625 30.0625 C -38.948261 21.176735 -51.433629 16 -64 16 z "
         transform="matrix(0,1.3333333,-1.3333333,0,85.333333,21.333333)"/>
    </g>
    <g>
      <path
         style="fill:#797979;fill-opacity:1;stroke:none;"
         d="m 51.5,-61.59375 0,0.21875 -0.1875,2.3125 -0.3125,2.5 0,0.09375 -0.03125,0.125 -0.34375,1.96875 7.875,1.40625 0.375,-2.1875 0.03125,-0.09375 0,-0.09375 0.34375,-2.71875 0.03125,-0.09375 0,-0.09375 0.21875,-2.71875 0,-0.09375 0,-0.125 0,-0.3125 -8,-0.21875 z m -110.875,1.9375 0.09375,1.40625 0,0.09375 0.03125,0.09375 0.34375,2.71875 0,0.09375 0.03125,0.09375 0.46875,2.6875 0,0.09375 0.03125,0.09375 0.25,1.125 7.8125,-1.78125 -0.21875,-0.9375 -0.03125,-0.1875 -0.40625,-2.28125 L -51,-56.5 l 0,-0.0625 -0.3125,-2.5 -0.09375,-1.1875 z M 48.53125,-46.75 l -0.0625,0.1875 -0.84375,2.1875 -0.0625,0.1875 -0.9375,2.125 -0.03125,0 -0.8125,1.6875 7.15625,3.5625 0.8125,-1.65625 0.0625,-0.09375 0.03125,-0.09375 1.09375,-2.46875 0.03125,-0.09375 0.0625,-0.09375 0.96875,-2.53125 0.03125,-0.09375 0.03125,-0.09375 0.21875,-0.65625 -7.59375,-2.53125 z m -104.1875,3.8125 0.625,1.625 0.0625,0.09375 0.03125,0.09375 1.09375,2.46875 0.03125,0.09375 0.0625,0.09375 1.21875,2.4375 0.03125,0.09375 0.0625,0.0625 0.375,0.71875 6.96875,-3.9375 -0.28125,-0.53125 -0.09375,-0.15625 -1.125,-2.28125 -0.03125,0 -0.9375,-2.125 -0.0625,-0.1875 -0.5625,-1.46875 z m 97.09375,9.59375 -1.53125,2 -0.125,0.125 -1.5,1.78125 -0.15625,0.15625 -0.90625,0.9375 5.8125,5.5 1.03125,-1.09375 0.0625,-0.0625 0.09375,-0.09375 1.75,-2.0625 0.0625,-0.0625 0.0625,-0.09375 1.6875,-2.15625 0.0625,-0.0625 0.0625,-0.09375 0.59375,-0.84375 -6.5625,-4.59375 z m -88.84375,5.375 1.3125,1.65625 0.0625,0.09375 0.0625,0.0625 1.75,2.0625 0.09375,0.09375 0.0625,0.0625 1.875,1.96875 0.0625,0.09375 0.09375,0.0625 0.3125,0.3125 5.5,-5.8125 -0.1875,-0.15625 -0.09375,-0.09375 -0.03125,-0.03125 -1.59375,-1.6875 -0.15625,-0.15625 -1.5,-1.78125 -1.28125,-1.65625 z m 78.21875,5.3125 -0.15625,0.09375 -1.9375,1.34375 -2.125,1.34375 -0.1875,0.125 -0.8125,0.46875 3.90625,6.96875 1,-0.5625 0.09375,-0.0625 L 30.6875,-13 33,-14.4375 33.0625,-14.5 l 0.09375,-0.0625 2.21875,-1.53125 0.09375,-0.0625 0.0625,-0.0625 1.125,-0.84375 -4.90625,-6.34375 z m -65.96875,6.6875 2,1.40625 0.09375,0.0625 0.0625,0.0625 2.3125,1.4375 0.09375,0.0625 0.09375,0.0625 2.375,1.3125 0.0625,0.0625 0.09375,0.03125 0.09375,0.03125 2.6875,-5.34375 0.96875,-1.75 -0.09375,-0.03125 -0.0625,-0.0625 -2.03125,-1.125 -0.1875,-0.125 -2.125,-1.34375 -1.875,-1.28125 z m 52.59375,0.4375 -0.1875,0.0625 -2.21875,0.75 -0.1875,0.0625 -2.4375,0.65625 -0.59375,0.15625 1.78125,7.78125 0.78125,-0.1875 0.09375,0 0.09375,-0.03125 2.625,-0.75 0.09375,0 L 17.375,-7.0625 19.96875,-7.9375 20.0625,-7.96875 20.15625,-8 l 1.625,-0.625 -2.90625,-7.46875 z m -35.46875,1.84375 -2.1875,5.65625 0.0625,0.03125 0.09375,0.03125 0.09375,0.03125 2.59375,0.875 0.09375,0.03125 0.09375,0 2.625,0.75 0.09375,0.03125 0.09375,0 2.40625,0.5625 1.78125,-7.8125 -2.21875,-0.5 -2.4375,-0.65625 -0.1875,-0.0625 -2.21875,-0.75 -0.09375,-0.03125 -0.09375,-0.03125 z M 2.625,-12.5 l -0.21875,0 -2.3125,0.0625 -0.09375,0 -0.09375,0 -2.3125,-0.0625 -0.21875,0 -0.25,-0.03125 -0.59375,7.96875 0.4375,0.0625 0.09375,0 0.125,0 2.71875,0.0625 0.09375,0 0.09375,0 2.71875,-0.0625 0.125,0 0.09375,0 2.09375,-0.1875 -0.59375,-7.96875 z"/>
    </g>
  </g>
</svg>
